<?xml version="1.0" encoding="UTF-8"?><svg id="_레이어_2" xmlns="http://www.w3.org/2000/svg" xmlns:xlink="http://www.w3.org/1999/xlink" viewBox="0 0 130 77.5"><defs><style>.cls-1{clip-path:url(#clippath);}.cls-2{fill:none;}.cls-3{fill:#282d33;}</style><clipPath id="clippath"><rect class="cls-2" width="130" height="77.5"/></clipPath></defs><g id="_레이어_1-2"><g class="cls-1"><path class="cls-3" d="M18.28,66.63h-4V5.31C14.28,2.38,16.65,0,19.56,0H108.87c2.91,0,5.28,2.38,5.28,5.31v4.13h-4V5.31c0-.72-.57-1.31-1.28-1.31H19.56c-.7,0-1.27,.59-1.27,1.31v61.33Z"/><polygon class="cls-3" points="88.88 59.75 22.56 59.75 22.56 8.79 107.17 8.79 107.17 12.67 105.17 12.67 105.17 12.79 26.56 12.79 26.56 55.75 88.88 55.75 88.88 59.75"/><path class="cls-3" d="M118.96,77.5H9.46c-3.72,0-8.17-3.27-8.67-3.64l-.8-.6v-8.93H126.42v4H4v2.89c1.58,1.04,3.94,2.28,5.46,2.28H118.96v4Z"/><rect class="cls-3" x="97.03" y="17.34" width="29.38" height="4"/><polygon class="cls-3" points="79.72 38.45 72.35 31.03 64.98 38.45 62.14 35.64 72.35 25.35 82.56 35.64 79.72 38.45"/><path class="cls-3" d="M88.88,52.91h-7.9c-5.99,0-10.86-4.91-10.86-10.94v-11h4v11c0,3.83,3.08,6.94,6.86,6.94h7.9v4Z"/><path class="cls-3" d="M125.96,77.5h-28.5c-2.23,0-4.04-1.82-4.04-4.05V35.08h4v38.37l28.54,.05,.03-60.67-28.53-.05-.04,9.11h-4V12.83c0-2.23,1.81-4.05,4.04-4.05h28.5c2.22,0,4.03,1.82,4.03,4.05v60.61c0,2.24-1.81,4.05-4.03,4.05"/><rect class="cls-3" x="95.96" y="64.26" width="31.51" height="4"/><rect class="cls-3" x="95.96" y="17.54" width="31.51" height="4"/><polygon class="cls-3" points="111.82 53.75 101.61 43.46 104.45 40.64 111.82 48.07 119.19 40.64 122.03 43.46 111.82 53.75"/><path class="cls-3" d="M114.05,48.12h-4v-10.99c0-3.83-3.08-6.94-6.86-6.94-4.81,0-10.09,.1-10.14,.1l-.08-4c.05,0,5.37-.1,10.22-.1,5.99,0,10.86,4.91,10.86,10.94v10.99Z"/></g></g></svg>