<?xml version="1.0" encoding="UTF-8"?><svg id="_레이어_2" xmlns="http://www.w3.org/2000/svg" xmlns:xlink="http://www.w3.org/1999/xlink" viewBox="0 0 130.01 132.9"><defs><style>.cls-1{clip-path:url(#clippath);}.cls-2{fill:none;}.cls-3{fill:#282d33;}</style><clipPath id="clippath"><rect class="cls-2" width="130.01" height="132.9"/></clipPath></defs><g id="_레이어_1-2"><g class="cls-1"><path class="cls-3" d="M71.31,39.75h-4v-4.13c0-8.59,6.91-15.57,15.41-15.57v4c-6.29,0-11.41,5.19-11.41,11.57v4.13Z"/><path class="cls-3" d="M62.54,56.48h-4V14.71c0-5.91-4.74-10.71-10.56-10.71V0C56.01,0,62.54,6.6,62.54,14.71V56.48Z"/><path class="cls-3" d="M64.94,66.18c-3.53,0-6.4-2.89-6.4-6.45v-11.76h4v11.76c0,1.35,1.07,2.45,2.4,2.45s2.39-1.1,2.39-2.45v-20.68h4v20.68c0,3.56-2.87,6.45-6.39,6.45"/><path class="cls-3" d="M37.67,28.28h-4V14.71C33.67,6.6,40.21,0,48.25,0V4c-5.83,0-10.57,4.8-10.57,10.71v13.56Z"/><path class="cls-3" d="M97.86,49.82h-4v-14.21c0-6.38-5.12-11.57-11.41-11.57v-4c8.5,0,15.41,6.99,15.41,15.57v14.21Z"/><path class="cls-3" d="M35.04,123.17c-13.07,0-24.19-10.3-25.33-23.44l-.19-2.17H60.56l-.19,2.17c-1.14,13.15-12.27,23.44-25.34,23.44m-21.05-21.62c1.91,10.04,10.77,17.62,21.05,17.62s19.14-7.58,21.05-17.62H13.99Z"/><path class="cls-3" d="M117.66,132.9h-43.3c-1.99,0-3.66-.84-4.58-2.32-1.03-1.66-1-3.88,.08-6.1l16.57-33.99v-20.91h-1.54v-15.69h22.23v15.69h-1.53v20.92l16.57,33.99c1.08,2.22,1.11,4.44,.08,6.1-.92,1.47-2.59,2.32-4.58,2.32m-28.77-67.32h1.54v25.83l-16.97,34.82c-.54,1.11-.49,1.9-.28,2.23,.24,.38,.85,.44,1.19,.44h43.3c.34,0,.95-.06,1.19-.44,.21-.33,.26-1.12-.28-2.23l-16.97-34.82v-25.84h1.53v-7.69h-14.23v7.69Z"/><path class="cls-3" d="M35.04,132.9C15.72,132.9,0,117,0,97.47,0,81.38,10.47,67.56,25.67,63.33v-13.55h-2.15v-15.77h23.05v15.77h-2.15v13.55c15.19,4.24,25.67,18.05,25.67,34.14,0,19.54-15.72,35.43-35.05,35.43m-7.52-87.12h2.15v20.7l-1.55,.36c-14.2,3.28-24.11,15.88-24.11,30.64,0,17.33,13.92,31.43,31.04,31.43s31.05-14.1,31.05-31.43c0-14.76-9.92-27.35-24.12-30.64l-1.55-.36v-20.7h2.15v-7.77h-15.05v7.77Z"/><path class="cls-3" d="M10.72,25.07c-4.38,0-7.95-3.6-7.95-8.02s3.57-8.02,7.95-8.02,7.95,3.6,7.95,8.02-3.57,8.02-7.95,8.02m0-12.04c-2.18,0-3.95,1.8-3.95,4.02s1.77,4.02,3.95,4.02,3.95-1.8,3.95-4.02-1.77-4.02-3.95-4.02"/><rect class="cls-3" x="114.46" y="5.28" width="4" height="5.3"/><rect class="cls-3" x="103.95" y="11.17" width="4" height="5.25" transform="translate(40.6 98.32) rotate(-59.71)"/><rect class="cls-3" x="103.09" y="23.93" width="5.25" height="4" transform="translate(1.34 56.81) rotate(-30.26)"/><rect class="cls-3" x="114" y="29.56" width="4" height="5.3"/><rect class="cls-3" x="124.5" y="23.71" width="4" height="5.25" transform="translate(39.94 122.27) rotate(-59.7)"/><rect class="cls-3" x="124.11" y="12.19" width="5.25" height="4" transform="translate(10.13 65.83) rotate(-30.28)"/><rect class="cls-3" x="78.63" y="109.05" width="36.6" height="4"/></g></g></svg>