<?xml version="1.0" encoding="UTF-8"?><svg id="_레이어_2" xmlns="http://www.w3.org/2000/svg" xmlns:xlink="http://www.w3.org/1999/xlink" viewBox="0 0 121.01 130"><defs><style>.cls-1{clip-path:url(#clippath);}.cls-2{fill:none;}.cls-3{fill:#282d33;}</style><clipPath id="clippath"><rect class="cls-2" width="121.01" height="130"/></clipPath></defs><g id="_레이어_1-2"><g class="cls-1"><path class="cls-3" d="M8.59,115.97l-.13-.22,3.41-2.08,.12,.19-3.4,2.11Zm-2.17-3.82c-.63-1.23-1.23-2.49-1.77-3.74l3.67-1.58c.5,1.17,1.06,2.34,1.65,3.49l-3.55,1.84Zm-3.27-7.61c-.45-1.3-.86-2.63-1.21-3.96l3.86-1.03c.33,1.23,.71,2.47,1.13,3.68l-3.78,1.31Zm-2.14-8c-.26-1.35-.47-2.73-.63-4.09l3.97-.46c.15,1.27,.35,2.55,.59,3.81l-3.93,.75ZM.06,88.31c-.04-.84-.06-1.69-.06-2.55,0-.53,0-1.06,.02-1.6l4,.11c-.01,.5-.02,.99-.02,1.48,0,.8,.02,1.59,.05,2.37l-4,.18Zm4.21-7.88l-3.98-.39c.14-1.37,.32-2.76,.55-4.11l3.94,.68c-.22,1.26-.39,2.54-.51,3.82m1.31-7.59l-3.88-.96c.33-1.33,.71-2.67,1.14-3.98l3.8,1.24c-.4,1.22-.75,2.46-1.06,3.7m2.38-7.32l-3.7-1.51c.52-1.27,1.09-2.54,1.7-3.78l3.58,1.77c-.57,1.15-1.1,2.33-1.58,3.51m3.42-6.9l-3.45-2.03c.7-1.19,1.45-2.36,2.23-3.49l3.3,2.27c-.73,1.05-1.42,2.15-2.07,3.25m4.37-6.35l-3.12-2.5c.86-1.08,1.77-2.13,2.7-3.14l2.94,2.71c-.86,.94-1.71,1.92-2.51,2.92m5.23-5.67l-2.74-2.91c1-.94,2.05-1.86,3.11-2.73l2.53,3.1c-.99,.81-1.97,1.66-2.9,2.54m5.97-4.88l-2.3-3.27c1.13-.79,2.29-1.55,3.46-2.26l2.07,3.42c-1.09,.66-2.18,1.37-3.23,2.11m6.6-3.99l-1.82-3.56c1.22-.63,2.49-1.22,3.75-1.75l1.57,3.68c-1.18,.5-2.35,1.05-3.49,1.63"/><path class="cls-3" d="M112.41,115.97l-3.39-2.12,.12-.19,3.41,2.08-.14,.22Zm2.17-3.83l-3.55-1.84c.59-1.14,1.15-2.31,1.65-3.49l3.67,1.58c-.54,1.26-1.14,2.52-1.77,3.74m3.27-7.61l-3.78-1.31c.42-1.22,.8-2.46,1.13-3.69l3.86,1.03c-.35,1.32-.76,2.66-1.21,3.96m2.14-8l-3.93-.75c.24-1.26,.44-2.54,.58-3.81l3.97,.46c-.16,1.36-.37,2.74-.63,4.09m.96-8.22l-4-.18c.04-.78,.05-1.57,.05-2.37,0-.5,0-.99-.02-1.49l4-.11c.02,.54,.02,1.07,.02,1.6,0,.85-.02,1.7-.06,2.54m-4.21-7.88c-.13-1.28-.3-2.57-.52-3.82l3.94-.68c.23,1.35,.42,2.73,.56,4.1l-3.98,.4Zm-1.31-7.59c-.31-1.24-.66-2.49-1.06-3.7l3.8-1.24c.43,1.31,.81,2.65,1.14,3.98l-3.88,.96Zm-2.39-7.32c-.48-1.18-1.01-2.36-1.58-3.51l3.58-1.77c.61,1.24,1.19,2.51,1.7,3.78l-3.7,1.51Zm-3.42-6.9c-.65-1.1-1.35-2.2-2.07-3.25l3.29-2.27c.78,1.13,1.53,2.31,2.23,3.49l-3.45,2.03Zm-4.37-6.35c-.8-1-1.65-1.99-2.52-2.92l2.94-2.71c.93,1,1.84,2.06,2.7,3.14l-3.12,2.5Zm-5.23-5.67c-.93-.88-1.91-1.73-2.9-2.54l2.53-3.1c1.07,.87,2.11,1.79,3.11,2.73l-2.74,2.91Zm-5.97-4.88c-1.05-.74-2.14-1.45-3.23-2.11l2.07-3.42c1.17,.71,2.34,1.47,3.47,2.26l-2.3,3.27Zm-6.6-3.99c-1.14-.58-2.32-1.13-3.49-1.63l1.57-3.68c1.26,.54,2.53,1.13,3.75,1.75l-1.82,3.56Z"/><path class="cls-3" d="M70.83,111.08v-4c15.64,0,28.35-12.58,28.35-28.05s-12.72-28.05-28.35-28.05v-4c17.84,0,32.35,14.38,32.35,32.05s-14.51,32.05-32.35,32.05"/><rect class="cls-3" x="70.85" y="101.73" width="4" height="12.69"/><polygon class="cls-3" points="68.33 85.92 48.59 85.92 48.59 74.77 52.59 74.77 52.59 81.92 64.33 81.92 64.33 74.99 68.33 74.99 68.33 85.92"/><polygon class="cls-3" points="68.33 18.67 64.33 18.67 64.33 4 52.59 4 52.59 18.45 48.59 18.45 48.59 0 68.33 0 68.33 18.67"/><polygon class="cls-3" points="73.73 77.24 43.2 77.24 43.2 18.03 73.73 18.03 73.73 37.81 69.73 37.81 69.73 22.03 47.2 22.03 47.2 73.24 69.73 73.24 69.73 60.52 73.73 60.52 73.73 77.24"/><rect class="cls-3" x="45.2" y="8.46" width="26.53" height="4"/><rect class="cls-3" x="33.95" y="99.73" width="46.32" height="4"/><path class="cls-3" d="M100.26,130H17.11v-10.46c0-3.31,2.71-6.01,6.05-6.01H94.22c3.33,0,6.05,2.69,6.05,6.01v10.46Zm-79.15-4H96.26v-6.46c0-1.11-.92-2.01-2.05-2.01H23.16c-1.13,0-2.05,.9-2.05,2.01v6.46Z"/><path class="cls-3" d="M70.83,62.1c-7.18,0-13.02-5.79-13.02-12.91s5.84-12.91,13.02-12.91,13.02,5.79,13.02,12.91-5.84,12.91-13.02,12.91m0-21.82c-4.97,0-9.02,4-9.02,8.91s4.04,8.91,9.02,8.91,9.02-3.99,9.02-8.91-4.04-8.91-9.02-8.91"/></g></g></svg>